# xmcd
#
# Track frame offsets: 
#        150
#        20425
#        41500
#        57888
#        85349
#        106274
#        121711
#        148386
#        164724
#        181987
#
# Disc length: 2853 seconds
#
# Revision: 0
# Processed by: cddbd v1.5.2PL0 Copyright (c) Steve Scherf et al.
# Submitted via: ExactAudioCopyFreeDBPlugin 1.0
#
DISCID=850b230a
DTITLE=The 2 Live Crew - Revelation
DYEAR=1900
DGENRE=Rap
TTITLE0=Serious Conversation
TTITLE1=Fresh Kid Ice Is Back
TTITLE2=Tab Ski Cuttin' It Up
TTITLE3=Revelation
TTITLE4=What I Like
TTITLE5=Freestyle
TTITLE6=It's Gotta Be Fresh
TTITLE7=Jack Boy Story
TTITLE8=Dead Ass Broke
TTITLE9=What I Like (Reprise)
EXTD=
EXTT0=
EXTT1=
EXTT2=
EXTT3=
EXTT4=
EXTT5=
EXTT6=
EXTT7=
EXTT8=
EXTT9=
PLAYORDER=
